<svg xmlns="http://www.w3.org/2000/svg" viewBox="0 0 720 560" role="img" aria-labelledby="title desc">
  <title id="title">Dental team illustration</title>
  <desc id="desc">Three friendly dental professionals standing together.</desc>
  <rect width="720" height="560" rx="32" fill="#F5FAFE" />
  <circle cx="360" cy="120" r="72" fill="#E3F2FD" />
  <circle cx="250" cy="210" r="48" fill="#FFD7C2" />
  <rect x="200" y="260" width="100" height="150" rx="24" fill="#FFFFFF" />
  <rect x="220" y="286" width="60" height="92" rx="18" fill="#64B5F6" />
  <circle cx="360" cy="180" r="58" fill="#F2C7A8" />
  <rect x="295" y="246" width="130" height="190" rx="30" fill="#FFFFFF" />
  <rect x="333" y="282" width="54" height="120" rx="18" fill="#1E88E5" />
  <circle cx="472" cy="215" r="48" fill="#EFC2A5" />
  <rect x="422" y="265" width="100" height="145" rx="24" fill="#FFFFFF" />
  <rect x="442" y="290" width="60" height="88" rx="18" fill="#90CAF9" />
  <rect x="158" y="430" width="404" height="24" rx="12" fill="#CFD8DC" />
  <path d="M312 136c16-18 42-24 62-16 18 7 30 22 34 44-30 8-70 6-106-8 2-8 5-14 10-20Z" fill="#37474F"/>
</svg>
