<svg xmlns="http://www.w3.org/2000/svg" viewBox="0 0 900 620" role="img" aria-labelledby="title desc">
  <title id="title">Dental office illustration</title>
  <desc id="desc">Bright dental clinic scene with chair, lamp, and friendly decor.</desc>
  <defs>
    <linearGradient id="bg" x1="0%" y1="0%" x2="100%" y2="100%">
      <stop offset="0%" stop-color="#E3F2FD" />
      <stop offset="100%" stop-color="#BBDEFB" />
    </linearGradient>
  </defs>
  <rect width="900" height="620" rx="36" fill="url(#bg)" />
  <circle cx="750" cy="120" r="64" fill="#FFFFFF" opacity="0.65" />
  <rect x="90" y="400" width="720" height="28" rx="14" fill="#90A4AE" opacity="0.45" />
  <rect x="520" y="160" width="220" height="170" rx="24" fill="#FFFFFF" />
  <rect x="550" y="200" width="160" height="18" rx="9" fill="#90CAF9" />
  <rect x="550" y="230" width="110" height="18" rx="9" fill="#E3F2FD" />
  <rect x="210" y="330" width="240" height="64" rx="32" fill="#42A5F5" />
  <rect x="238" y="236" width="170" height="110" rx="40" fill="#64B5F6" />
  <rect x="355" y="230" width="34" height="180" rx="17" fill="#1E88E5" />
  <rect x="186" y="394" width="300" height="26" rx="13" fill="#1976D2" />
  <rect x="120" y="165" width="30" height="170" rx="15" fill="#607D8B" />
  <circle cx="150" cy="155" r="54" fill="#FFFFFF" stroke="#90CAF9" stroke-width="12" />
  <path d="M150 126c13 0 22 8 22 19 0 5-2 8-4 11-3 4-4 9-5 16-1 4-4 6-8 6s-7-2-8-6c-1-7-2-12-5-16-2-3-4-6-4-11 0-11 9-19 22-19Z" fill="#42A5F5"/>
  <rect x="600" y="362" width="32" height="74" rx="16" fill="#78909C" />
  <rect x="652" y="362" width="32" height="74" rx="16" fill="#78909C" />
</svg>
