<svg xmlns="http://www.w3.org/2000/svg" viewBox="0 0 720 560" role="img" aria-labelledby="title desc">
  <title id="title">Pediatric dental care illustration</title>
  <desc id="desc">Dentist and child in a bright pediatric dental setting.</desc>
  <rect width="720" height="560" rx="32" fill="#FFF8EE" />
  <circle cx="560" cy="110" r="64" fill="#FFE0B2" />
  <rect x="120" y="360" width="320" height="70" rx="35" fill="#81D4FA" />
  <rect x="180" y="280" width="170" height="96" rx="34" fill="#4FC3F7" />
  <rect x="310" y="275" width="32" height="150" rx="16" fill="#0288D1" />
  <circle cx="440" cy="200" r="52" fill="#FFD4BE" />
  <rect x="390" y="254" width="102" height="152" rx="24" fill="#FFFFFF" />
  <rect x="415" y="286" width="52" height="92" rx="16" fill="#90CAF9" />
  <circle cx="276" cy="208" r="42" fill="#FFDFC9" />
  <rect x="236" y="250" width="82" height="120" rx="20" fill="#FFFFFF" />
  <rect x="252" y="278" width="50" height="72" rx="15" fill="#FFCC80" />
  <path d="M522 122c13 0 22 8 22 19 0 5-2 8-4 11-3 4-4 9-5 16-1 4-4 6-8 6s-7-2-8-6c-1-7-2-12-5-16-2-3-4-6-4-11 0-11 9-19 22-19Z" fill="#42A5F5"/>
</svg>
